<mxfile host="65bd71144e">
    <diagram id="tl3Cikh1ILflW9dANEIs" name="ページ1">
        <mxGraphModel dx="1160" dy="493" grid="1" gridSize="10" guides="1" tooltips="1" connect="1" arrows="1" fold="1" page="1" pageScale="1" pageWidth="827" pageHeight="1169" math="0" shadow="0">
            <root>
                <mxCell id="0"/>
                <mxCell id="1" parent="0"/>
                <mxCell id="2" value="学生／職員" style="shape=umlActor;verticalLabelPosition=bottom;verticalAlign=top;html=1;outlineConnect=0;" vertex="1" parent="1">
                    <mxGeometry x="120" y="131" width="30" height="60" as="geometry"/>
                </mxCell>
                <mxCell id="3" value="本と&lt;span style=&quot;color: rgb(63, 63, 63); background-color: light-dark(#ffffff, var(--ge-dark-color, #121212));&quot;&gt;学生証持参&lt;/span&gt;" style="html=1;verticalAlign=bottom;endArrow=block;curved=0;rounded=0;exitX=1;exitY=0.3333333333333333;exitDx=0;exitDy=0;exitPerimeter=0;entryX=-0.004;entryY=0.302;entryDx=0;entryDy=0;entryPerimeter=0;" edge="1" parent="1" source="2" target="21">
                    <mxGeometry width="80" relative="1" as="geometry">
                        <mxPoint x="100" y="110" as="sourcePoint"/>
                        <mxPoint x="280" y="150" as="targetPoint"/>
                    </mxGeometry>
                </mxCell>
                <mxCell id="21" value="&lt;p style=&quot;margin:0px;margin-top:4px;text-align:center;&quot;&gt;&lt;b&gt;図書システム&lt;/b&gt;&lt;/p&gt;&lt;hr size=&quot;1&quot; style=&quot;border-style:solid;&quot;&gt;&lt;div style=&quot;height:2px;&quot;&gt;&lt;/div&gt;" style="verticalAlign=top;align=left;overflow=fill;html=1;whiteSpace=wrap;strokeColor=default;fontFamily=Helvetica;fontSize=12;fontColor=default;resizable=1;fillColor=default;" vertex="1" parent="1">
                    <mxGeometry x="310" y="20" width="240" height="440" as="geometry"/>
                </mxCell>
                <mxCell id="22" value="違反が無いか確認" style="ellipse;whiteSpace=wrap;html=1;strokeColor=default;align=center;verticalAlign=middle;fontFamily=Helvetica;fontSize=12;fontColor=default;resizable=1;fillColor=default;" vertex="1" parent="1">
                    <mxGeometry x="360" y="61" width="140" height="70" as="geometry"/>
                </mxCell>
                <mxCell id="23" value="上限に達していないか　確認" style="ellipse;whiteSpace=wrap;html=1;strokeColor=default;align=center;verticalAlign=middle;fontFamily=Helvetica;fontSize=12;fontColor=default;resizable=1;fillColor=default;" vertex="1" parent="1">
                    <mxGeometry x="360" y="150" width="140" height="70" as="geometry"/>
                </mxCell>
                <mxCell id="24" value="図書事務職員" style="shape=umlActor;verticalLabelPosition=bottom;verticalAlign=top;html=1;strokeColor=default;align=center;fontFamily=Helvetica;fontSize=12;fontColor=default;resizable=1;fillColor=default;" vertex="1" parent="1">
                    <mxGeometry x="690" y="120" width="30" height="60" as="geometry"/>
                </mxCell>
                <mxCell id="25" value="" style="endArrow=classic;html=1;fontFamily=Helvetica;fontSize=12;fontColor=default;resizable=1;entryX=0.992;entryY=0.615;entryDx=0;entryDy=0;entryPerimeter=0;exitX=0;exitY=0.3333333333333333;exitDx=0;exitDy=0;exitPerimeter=0;" edge="1" parent="1" source="24" target="23">
                    <mxGeometry width="50" height="50" relative="1" as="geometry">
                        <mxPoint x="630" y="280" as="sourcePoint"/>
                        <mxPoint x="680" y="230" as="targetPoint"/>
                    </mxGeometry>
                </mxCell>
                <mxCell id="26" value="" style="endArrow=classic;html=1;fontFamily=Helvetica;fontSize=12;fontColor=default;resizable=1;entryX=1;entryY=0.5;entryDx=0;entryDy=0;exitX=0;exitY=0.3333333333333333;exitDx=0;exitDy=0;exitPerimeter=0;" edge="1" parent="1" source="24" target="22">
                    <mxGeometry width="50" height="50" relative="1" as="geometry">
                        <mxPoint x="610" y="290" as="sourcePoint"/>
                        <mxPoint x="660" y="240" as="targetPoint"/>
                    </mxGeometry>
                </mxCell>
                <mxCell id="32" value="返却されたらメールで通知" style="ellipse;whiteSpace=wrap;html=1;strokeColor=default;align=center;verticalAlign=middle;fontFamily=Helvetica;fontSize=12;fontColor=default;resizable=1;fillColor=default;" vertex="1" parent="1">
                    <mxGeometry x="370" y="340" width="120" height="80" as="geometry"/>
                </mxCell>
                <mxCell id="33" value="図書事務職員" style="shape=umlActor;verticalLabelPosition=bottom;verticalAlign=top;html=1;outlineConnect=0;strokeColor=default;align=center;fontFamily=Helvetica;fontSize=12;fontColor=default;resizable=1;fillColor=default;" vertex="1" parent="1">
                    <mxGeometry x="691" y="290" width="30" height="60" as="geometry"/>
                </mxCell>
                <mxCell id="34" value="" style="endArrow=classic;html=1;fontFamily=Helvetica;fontSize=12;fontColor=default;resizable=1;exitX=1;exitY=0.5;exitDx=0;exitDy=0;entryX=0;entryY=0.3333333333333333;entryDx=0;entryDy=0;entryPerimeter=0;" edge="1" parent="1" source="32" target="33">
                    <mxGeometry width="50" height="50" relative="1" as="geometry">
                        <mxPoint x="590" y="260" as="sourcePoint"/>
                        <mxPoint x="640" y="210" as="targetPoint"/>
                    </mxGeometry>
                </mxCell>
                <mxCell id="36" value="" style="endArrow=classic;html=1;fontFamily=Helvetica;fontSize=12;fontColor=default;resizable=1;exitX=0;exitY=0.5;exitDx=0;exitDy=0;" edge="1" parent="1" source="32" target="2">
                    <mxGeometry width="50" height="50" relative="1" as="geometry">
                        <mxPoint x="160" y="330" as="sourcePoint"/>
                        <mxPoint x="210" y="280" as="targetPoint"/>
                    </mxGeometry>
                </mxCell>
                <mxCell id="37" value="会員確認" style="ellipse;whiteSpace=wrap;html=1;strokeColor=default;align=center;verticalAlign=middle;fontFamily=Helvetica;fontSize=12;fontColor=default;resizable=1;fillColor=default;" vertex="1" parent="1">
                    <mxGeometry x="360" y="240" width="140" height="70" as="geometry"/>
                </mxCell>
                <mxCell id="38" value="" style="endArrow=classic;html=1;fontFamily=Helvetica;fontSize=12;fontColor=default;resizable=1;entryX=1;entryY=0.5;entryDx=0;entryDy=0;exitX=0;exitY=0.3333333333333333;exitDx=0;exitDy=0;exitPerimeter=0;" edge="1" parent="1" source="24" target="37">
                    <mxGeometry width="50" height="50" relative="1" as="geometry">
                        <mxPoint x="610" y="280" as="sourcePoint"/>
                        <mxPoint x="660" y="230" as="targetPoint"/>
                    </mxGeometry>
                </mxCell>
            </root>
        </mxGraphModel>
    </diagram>
</mxfile>